{
  "accessors": [
    {
      "bufferView": 2,
      "componentType": 5126,
      "count": 2412,
      "max": [
        54.88645935058594,
        54.886451721191406,
        100.0000228881836
      ],
      "min": [
        -54.88645935058594,
        -53.84117126464844,
        0.0
      ],
      "type": "VEC3"
    },
    {
      "bufferView": 2,
      "byteOffset": 28944,
      "componentType": 5126,
      "count": 2412,
      "max": [
        0.9945217967033386,
        0.9945217967033386,
        1.0
      ],
      "min": [
        -0.9945217967033386,
        -0.9945217967033386,
        -1.0
      ],
      "type": "VEC3"
    },
    {
      "bufferView": 1,
      "componentType": 5126,
      "count": 2412,
      "max": [
        0.9862800240516663,
        0.9988800287246704
      ],
      "min": [
        0.015130000188946724,
        0.026520000770688057
      ],
      "type": "VEC2"
    },
    {
      "bufferView": 0,
      "componentType": 5125,
      "count": 3252,
      "type": "SCALAR"
    },
    {
      "bufferView": 2,
      "byteOffset": 57888,
      "componentType": 5126,
      "count": 36774,
      "max": [
        54.88645935058594,
        54.88645935058594,
        100.0000228881836
      ],
      "min": [
        -54.88645935058594,
        -54.886470794677734,
        0.0
      ],
      "type": "VEC3"
    },
    {
      "bufferView": 2,
      "byteOffset": 499176,
      "componentType": 5126,
      "count": 36774,
      "max": [
        0.9945217967033386,
        0.9945217967033386,
        1.0
      ],
      "min": [
        -0.9945217967033386,
        -0.9945217967033386,
        -1.0
      ],
      "type": "VEC3"
    },
    {
      "bufferView": 1,
      "byteOffset": 19296,
      "componentType": 5126,
      "count": 36774,
      "max": [
        0.9965100288391113,
        1.0
      ],
      "min": [
        0.0,
        0.0
      ],
      "type": "VEC2"
    },
    {
      "bufferView": 0,
      "byteOffset": 13008,
      "componentType": 5125,
      "count": 49500,
      "type": "SCALAR"
    },
    {
      "bufferView": 2,
      "byteOffset": 940464,
      "componentType": 5126,
      "count": 2399,
      "max": [
        31.449329376220703,
        31.122480392456055,
        80.41729736328125
      ],
      "min": [
        -30.989139556884766,
        -31.315990447998047,
        17.978839874267578
      ],
      "type": "VEC3"
    },
    {
      "bufferView": 2,
      "byteOffset": 969252,
      "componentType": 5126,
      "count": 2399,
      "max": [
        0.9999999403953552,
        0.9999999403953552,
        0.9999999403953552
      ],
      "min": [
        -0.9999999403953552,
        -0.9999999403953552,
        -0.9999999403953552
      ],
      "type": "VEC3"
    },
    {
      "bufferView": 1,
      "byteOffset": 313488,
      "componentType": 5126,
      "count": 2399,
      "max": [
        1.0,
        1.0
      ],
      "min": [
        0.0,
        0.0
      ],
      "type": "VEC2"
    },
    {
      "bufferView": 0,
      "byteOffset": 211008,
      "componentType": 5125,
      "count": 13536,
      "type": "SCALAR"
    }
  ],
  "asset": {
    "extras": {
      "author": "Addison (https://sketchfab.com/SatansBossbabe)",
      "license": "CC-BY-NC-ND-4.0 (http://creativecommons.org/licenses/by-nc-nd/4.0/)",
      "source": "https://sketchfab.com/3d-models/glass-brick-cube-with-glowing-sphere-097bc464323e434e957f00e53645f60b",
      "title": "Glass Brick Cube with Glowing Sphere"
    },
    "generator": "Sketchfab-12.68.0",
    "version": "2.0"
  },
  "bufferViews": [
    {
      "buffer": 0,
      "byteLength": 265152,
      "name": "floatBufferViews",
      "target": 34963
    },
    {
      "buffer": 0,
      "byteLength": 332680,
      "byteOffset": 265152,
      "byteStride": 8,
      "name": "floatBufferViews",
      "target": 34962
    },
    {
      "buffer": 0,
      "byteLength": 998040,
      "byteOffset": 597832,
      "byteStride": 12,
      "name": "floatBufferViews",
      "target": 34962
    }
  ],
  "buffers": [
    {
      "byteLength": 1595872,
      "uri": "scene.bin"
    }
  ],
  "extensionsUsed": [
    "KHR_materials_clearcoat",
    "KHR_materials_transmission"
  ],
  "images": [
    {
      "uri": "textures/Glowing_baseColor.jpeg"
    },
    {
      "uri": "textures/Glowing_clearcoat.png"
    }
  ],
  "materials": [
    {
      "alphaMode": "BLEND",
      "doubleSided": true,
      "extensions": {
        "KHR_materials_clearcoat": {
          "clearcoatFactor": 1.0,
          "clearcoatRoughnessFactor": 0.026030741355513805
        },
        "KHR_materials_transmission": {
          "transmissionFactor": 0.8037244100711989
        }
      },
      "name": "Frosted_Glass",
      "pbrMetallicRoughness": {
        "baseColorFactor": [
          0.8853436568488308,
          1.0,
          0.7158558931551351,
          0.25
        ],
        "metallicFactor": 0.0,
        "roughnessFactor": 0.713090308811995
      }
    },
    {
      "alphaMode": "BLEND",
      "doubleSided": true,
      "extensions": {
        "KHR_materials_clearcoat": {
          "clearcoatFactor": 1.0,
          "clearcoatRoughnessFactor": 0.0
        },
        "KHR_materials_transmission": {
          "transmissionFactor": 0.8341252758878572
        }
      },
      "name": "Glass",
      "pbrMetallicRoughness": {
        "baseColorFactor": [
          0.5830405017641961,
          0.9619491654316735,
          1.0,
          0.25
        ],
        "metallicFactor": 0.0,
        "roughnessFactor": 0.13547385829548425
      }
    },
    {
      "doubleSided": true,
      "emissiveFactor": [
        0.8683247298883072,
        0.8683247298883072,
        0.8683247298883072
      ],
      "emissiveTexture": {
        "index": 0
      },
      "extensions": {
        "KHR_materials_clearcoat": {
          "clearcoatFactor": 1.0,
          "clearcoatRoughnessFactor": 0.0,
          "clearcoatTexture": {
            "index": 1
          }
        }
      },
      "name": "Glowing",
      "pbrMetallicRoughness": {
        "baseColorTexture": {
          "index": 0
        },
        "metallicFactor": 0.0,
        "roughnessFactor": 0.0
      }
    }
  ],
  "meshes": [
    {
      "name": "Object_0",
      "primitives": [
        {
          "attributes": {
            "NORMAL": 1,
            "POSITION": 0,
            "TEXCOORD_0": 2
          },
          "indices": 3,
          "material": 0,
          "mode": 4
        }
      ]
    },
    {
      "name": "Object_1",
      "primitives": [
        {
          "attributes": {
            "NORMAL": 5,
            "POSITION": 4,
            "TEXCOORD_0": 6
          },
          "indices": 7,
          "material": 1,
          "mode": 4
        }
      ]
    },
    {
      "name": "Object_2",
      "primitives": [
        {
          "attributes": {
            "NORMAL": 9,
            "POSITION": 8,
            "TEXCOORD_0": 10
          },
          "indices": 11,
          "material": 2,
          "mode": 4
        }
      ]
    }
  ],
  "nodes": [
    {
      "children": [
        1
      ],
      "matrix": [
        1.0,
        0.0,
        0.0,
        0.0,
        0.0,
        2.220446049250313e-16,
        -1.0,
        0.0,
        0.0,
        1.0,
        2.220446049250313e-16,
        0.0,
        0.0,
        0.0,
        0.0,
        1.0
      ],
      "name": "Sketchfab_model"
    },
    {
      "children": [
        2,
        3,
        4
      ],
      "name": "GlassCubewSphere.obj.cleaner.materialmerger.gles"
    },
    {
      "mesh": 0,
      "name": "Object_2"
    },
    {
      "mesh": 1,
      "name": "Object_3"
    },
    {
      "mesh": 2,
      "name": "Object_4"
    }
  ],
  "samplers": [
    {
      "magFilter": 9729,
      "minFilter": 9987,
      "wrapS": 10497,
      "wrapT": 10497
    }
  ],
  "scene": 0,
  "scenes": [
    {
      "name": "Sketchfab_Scene",
      "nodes": [
        0
      ]
    }
  ],
  "textures": [
    {
      "sampler": 0,
      "source": 0
    },
    {
      "sampler": 0,
      "source": 1
    }
  ]
}
